<svg width="342" height="255.00000000000003" xmlns="http://www.w3.org/2000/svg">

 <g>
  <rect fill="none" id="canvas_background" height="257" width="344" y="-1" x="-1"/>
 </g>
 <g fill="#fff">
  <path stroke="null" id="svg_3" d="m303.021216,1.02655l-264.042419,0c-20.841127,0 -37.720724,14.149684 -37.720724,31.618548l0,189.709809c0,17.468864 16.879598,31.618548 37.720724,31.618548l264.043303,0c20.840243,0 37.71984,-14.149684 37.71984,-31.618548l0,-189.709809c0,-17.468864 -16.879598,-31.618548 -37.720724,-31.618548zm-150.88113,110.664549l-28.290322,0l0,-7.904822l-37.720724,0l0,47.427452l37.720724,0l0,-7.904823l28.290322,0l0,15.808904c0,8.694786 -8.392501,15.808904 -18.85992,15.808904l-56.580645,0c-10.468303,0.000741 -18.860804,-7.113377 -18.860804,-15.808163l0,-63.236356c0,-8.695527 8.392501,-15.809644 18.85992,-15.809644l56.580645,0c10.467419,0 18.85992,7.114117 18.85992,15.808903l0,15.809645l0.000884,0zm132.02121,0l-28.290322,0l0,-7.904822l-37.720724,0l0,47.427452l37.720724,0l0,-7.904823l28.290322,0l0,15.808904c0,8.695527 -8.392501,15.809645 -18.85992,15.809645l-56.580645,0c-10.467419,0 -18.85992,-7.114118 -18.85992,-15.808904l0,-63.236356c0,-8.694786 8.392501,-15.808903 18.85992,-15.808903l56.580645,0c10.467419,0 18.85992,7.114117 18.85992,15.808903l0,15.808904z"/>
 </g>
</svg>